<?xml version="1.0" encoding="UTF-8"?>
<svg id="Calque_1" xmlns="http://www.w3.org/2000/svg" version="1.1" xmlns:xlink="http://www.w3.org/1999/xlink" viewBox="0 0 595.3 200.3">
  <!-- Generator: Adobe Illustrator 29.0.0, SVG Export Plug-In . SVG Version: 2.1.0 Build 186)  -->
  <defs>
    <style>
      .st0 {
        fill: url(#Dégradé_sans_nom_11);
      }

      .st1 {
        fill: url(#Dégradé_sans_nom_7);
      }

      .st2 {
        fill: url(#Dégradé_sans_nom_6);
      }

      .st3 {
        fill: url(#Dégradé_sans_nom_13);
      }

      .st4 {
        fill: url(#Dégradé_sans_nom_2);
      }

      .st5 {
        fill: url(#Dégradé_sans_nom);
      }

      .st6 {
        fill: url(#Dégradé_sans_nom_9);
      }

      .st7 {
        fill: url(#Dégradé_sans_nom_4);
      }

      .st8 {
        fill: url(#Dégradé_sans_nom_12);
      }

      .st9 {
        fill: url(#Dégradé_sans_nom_3);
      }

      .st10 {
        fill: url(#Dégradé_sans_nom_5);
      }

      .st11 {
        fill: url(#Dégradé_sans_nom_10);
      }

      .st12 {
        fill: url(#Dégradé_sans_nom_8);
      }
    </style>
    <linearGradient id="Dégradé_sans_nom" data-name="Dégradé sans nom" x1="9.6" y1="95.3" x2="119.8" y2="95.3" gradientTransform="translate(0 199.9) scale(1 -1)" gradientUnits="userSpaceOnUse">
      <stop offset="0" stop-color="#096b30"/>
      <stop offset="1" stop-color="#17331b"/>
    </linearGradient>
    <linearGradient id="Dégradé_sans_nom_2" data-name="Dégradé sans nom 2" x1="76.6" y1="97" x2="161.9" y2="97" gradientTransform="translate(0 199.9) scale(1 -1)" gradientUnits="userSpaceOnUse">
      <stop offset="0" stop-color="#e96e08"/>
      <stop offset="1" stop-color="#e9ca00"/>
    </linearGradient>
    <linearGradient id="Dégradé_sans_nom_3" data-name="Dégradé sans nom 3" x1="114.8" y1="96.8" x2="197.1" y2="96.8" gradientTransform="translate(0 199.9) scale(1 -1)" gradientUnits="userSpaceOnUse">
      <stop offset="0" stop-color="#0d6b30"/>
      <stop offset="1" stop-color="#17331b"/>
    </linearGradient>
    <linearGradient id="Dégradé_sans_nom_4" data-name="Dégradé sans nom 4" x1="207.1" y1="93.2" x2="249.4" y2="93.2" gradientTransform="translate(0 199.9) scale(1 -1)" gradientUnits="userSpaceOnUse">
      <stop offset="0" stop-color="#173e1e"/>
      <stop offset="1" stop-color="#096b30"/>
    </linearGradient>
    <linearGradient id="Dégradé_sans_nom_5" data-name="Dégradé sans nom 5" x1="256.2" y1="93.2" x2="295.1" y2="93.2" gradientTransform="translate(0 199.9) scale(1 -1)" gradientUnits="userSpaceOnUse">
      <stop offset="0" stop-color="#173e1e"/>
      <stop offset="1" stop-color="#096b30"/>
    </linearGradient>
    <linearGradient id="Dégradé_sans_nom_6" data-name="Dégradé sans nom 6" x1="303.2" y1="92.8" x2="338" y2="92.8" gradientTransform="translate(0 199.9) scale(1 -1)" gradientUnits="userSpaceOnUse">
      <stop offset="0" stop-color="#173e1e"/>
      <stop offset="1" stop-color="#096b30"/>
    </linearGradient>
    <linearGradient id="Dégradé_sans_nom_7" data-name="Dégradé sans nom 7" x1="358.3" y1="93.2" x2="400.6" y2="93.2" gradientTransform="translate(0 199.9) scale(1 -1)" gradientUnits="userSpaceOnUse">
      <stop offset="0" stop-color="#173e1e"/>
      <stop offset="1" stop-color="#096b30"/>
    </linearGradient>
    <linearGradient id="Dégradé_sans_nom_8" data-name="Dégradé sans nom 8" x1="404.8" y1="80.6" x2="437.9" y2="80.6" gradientTransform="translate(0 199.9) scale(1 -1)" gradientUnits="userSpaceOnUse">
      <stop offset="0" stop-color="#173e1e"/>
      <stop offset="1" stop-color="#096b30"/>
    </linearGradient>
    <linearGradient id="Dégradé_sans_nom_9" data-name="Dégradé sans nom 9" x1="443.3" y1="86.9" x2="475.6" y2="86.9" gradientTransform="translate(0 199.9) scale(1 -1)" gradientUnits="userSpaceOnUse">
      <stop offset="0" stop-color="#173e1e"/>
      <stop offset="1" stop-color="#096b30"/>
    </linearGradient>
    <linearGradient id="Dégradé_sans_nom_10" data-name="Dégradé sans nom 10" x1="482.5" y1="86.9" x2="512.7" y2="86.9" gradientTransform="translate(0 199.9) scale(1 -1)" gradientUnits="userSpaceOnUse">
      <stop offset="0" stop-color="#173e1e"/>
      <stop offset="1" stop-color="#096b30"/>
    </linearGradient>
    <linearGradient id="Dégradé_sans_nom_11" data-name="Dégradé sans nom 11" x1="519.5" y1="86.9" x2="551.6" y2="86.9" gradientTransform="translate(0 199.9) scale(1 -1)" gradientUnits="userSpaceOnUse">
      <stop offset="0" stop-color="#173e1e"/>
      <stop offset="1" stop-color="#096b30"/>
    </linearGradient>
    <linearGradient id="Dégradé_sans_nom_12" data-name="Dégradé sans nom 12" x1="553.5" y1="80.6" x2="585.6" y2="80.6" gradientTransform="translate(0 199.9) scale(1 -1)" gradientUnits="userSpaceOnUse">
      <stop offset="0" stop-color="#173e1e"/>
      <stop offset="1" stop-color="#096b30"/>
    </linearGradient>
    <linearGradient id="Dégradé_sans_nom_13" data-name="Dégradé sans nom 13" x1="454.6" y1="143.7" x2="493.4" y2="143.7" gradientTransform="translate(145.2 341) rotate(-16.4) scale(1 -1)" gradientUnits="userSpaceOnUse">
      <stop offset="0" stop-color="#ffef26"/>
      <stop offset="0" stop-color="#fee921"/>
      <stop offset="0" stop-color="#fdd70e"/>
      <stop offset=".2" stop-color="#fdcb03"/>
      <stop offset=".3" stop-color="#fdc800"/>
      <stop offset=".7" stop-color="#f18f34"/>
      <stop offset=".9" stop-color="#e95f32"/>
      <stop offset="1" stop-color="#e3312d"/>
    </linearGradient>
  </defs>
  <path class="st5" d="M119.8,138.7H19.6c-8.4,0-13.1-9.8-7.7-16.3l7.3-8.7h0c0-.1,33.2-40.3,33.2-40.3,3.2-3.9,9.1-3.9,12.3,0l6.5,7.8c2.2,2.7,2.3,6.6,0,9.2l-15.7,19c-1.3,1.6-.2,4.1,1.9,4.1h29.7c7,0,13.7,3.1,18.3,8.5l14.1,16.8h0Z"/>
  <path class="st4" d="M161.9,138.7h-25.1c-5.5,0-10.8-2.4-14.4-6.6l-44-52.1c-4.3-5.1-.7-12.8,6-12.8h10.5c4.2,0,8.1,1.8,10.8,5l56.1,66.4Z"/>
  <path class="st9" d="M197.1,103.7c0,3.8-.6,7.4-1.7,10.8-3.8,12.1-13.8,21.4-26.2,24.2l-13.5-16c-3-3.6-.4-9,4.3-8.9h0c.8.2,5.2.3,6,.3s1.3,0,2-.2c4.7-.9,8.3-5,8.3-10s-3-8.4-7.1-9.7c-1-.3-2-.5-3.1-.5s-10.2-.3-11.1,0l-17.5-.2c-4.1,0-7.9-1.8-10.5-4.9l-10.9-12.9c-2.8-3.3-.4-8.3,3.9-8.2l36,.7h0l10,.2c1.9,0,3.7.3,5.5.8,12.1,3.5,21.5,13.3,24.6,25.6.7,2.8,1.1,5.8,1.1,8.9h0Z"/>
  <g>
    <path class="st7" d="M239.5,124.3l-2.2-5.7h-18.5l-2.2,5.8c-.8,2.3-1.6,3.8-2.2,4.6-.6.8-1.6,1.2-3,1.2s-2.2-.4-3.1-1.3-1.3-1.8-1.3-2.9.1-1.3.3-1.9c.2-.7.5-1.6,1-2.8l11.6-29.6c.3-.8.7-1.9,1.2-3.1.5-1.2,1-2.2,1.5-3,.5-.8,1.2-1.4,2.1-1.9.9-.5,1.9-.7,3.2-.7s2.4.2,3.2.7c.9.5,1.6,1.1,2.1,1.9.5.8,1,1.6,1.3,2.5s.8,2.1,1.4,3.5l11.9,29.4c.9,2.2,1.4,3.9,1.4,4.9s-.4,2-1.3,2.9-1.9,1.3-3.2,1.3-1.3-.1-1.9-.4-1-.6-1.3-1.1c-.3-.4-.7-1.1-1.1-2.1s-.7-1.7-1-2.4h0ZM221.2,111.7h13.6l-6.9-18.8-6.7,18.8h0Z"/>
    <path class="st10" d="M261.8,83.9h12c3.1,0,5.8.3,8,.9,2.2.6,4.3,1.7,6.1,3.3,4.7,4.1,7.1,10.2,7.1,18.5s-.2,5.2-.7,7.5-1.2,4.3-2.2,6.1-2.3,3.4-3.8,4.9c-1.2,1.1-2.6,2-4,2.6-1.4.7-3,1.1-4.7,1.4-1.7.3-3.6.4-5.6.4h-12c-1.7,0-2.9-.2-3.8-.8-.8-.5-1.4-1.2-1.7-2.1s-.4-2.1-.4-3.6v-33.4c0-2,.4-3.4,1.3-4.3.9-.9,2.3-1.3,4.3-1.3h0ZM265.4,91.2v30.9h7c1.5,0,2.7,0,3.6-.1s1.8-.3,2.7-.6,1.7-.8,2.4-1.4c3.1-2.6,4.6-7.1,4.6-13.5s-.7-7.9-2-10.1-3-3.7-5-4.3-4.4-.9-7.2-.9h-6.1Z"/>
    <path class="st2" d="M320.9,111.7h-8.5v12.9c0,1.8-.4,3.2-1.3,4.2s-2,1.4-3.3,1.4-2.5-.5-3.4-1.4-1.3-2.3-1.3-4.1v-35.1c0-2,.5-3.5,1.4-4.3.9-.9,2.4-1.3,4.4-1.3h11.8c3.5,0,6.2.3,8.1.8,1.9.5,3.5,1.4,4.8,2.6,1.4,1.2,2.4,2.7,3.1,4.4s1.1,3.7,1.1,5.9c0,4.6-1.4,8.2-4.3,10.5s-7.1,3.6-12.8,3.6h0ZM318.7,90.9h-6.2v13.9h6.2c2.2,0,4-.2,5.5-.7,1.5-.5,2.6-1.2,3.3-2.2.8-1,1.2-2.4,1.2-4.1s-.6-3.7-1.8-4.9c-1.3-1.3-4.1-2-8.2-2h0Z"/>
    <path class="st1" d="M390.7,124.3l-2.2-5.7h-18.5l-2.2,5.8c-.8,2.3-1.6,3.8-2.2,4.6-.6.8-1.6,1.2-3,1.2s-2.2-.4-3.1-1.3c-.9-.8-1.3-1.8-1.3-2.9s0-1.3.3-1.9.5-1.6,1-2.8l11.6-29.6c.3-.8.7-1.9,1.2-3.1s1-2.2,1.5-3c.5-.8,1.2-1.4,2.1-1.9.9-.5,1.9-.7,3.2-.7s2.4.2,3.2.7c.9.5,1.6,1.1,2.1,1.9.5.8,1,1.6,1.3,2.5.4.9.8,2.1,1.4,3.5l11.9,29.4c.9,2.2,1.4,3.9,1.4,4.9s-.4,2-1.3,2.9-1.9,1.3-3.2,1.3-1.3-.1-1.9-.4-1-.6-1.3-1.1-.7-1.1-1.1-2.1-.7-1.7-1-2.4h0ZM372.5,111.7h13.6l-6.9-18.8-6.7,18.8Z"/>
    <path class="st12" d="M437.9,102v24.6c0,2.8-.3,5.2-.9,7.3-.6,2-1.6,3.7-2.9,5s-3.1,2.3-5.2,3-4.8,1-8,1-5.5-.4-7.8-1.2-4.1-1.9-5.3-3.2-1.9-2.6-1.9-4,.3-1.9,1.1-2.5,1.6-1,2.5-1,2.3.5,3.3,1.7c.5.6.9,1.1,1.4,1.7.5.6,1,1.1,1.6,1.5.6.4,1.3.7,2.1.9.8.2,1.8.3,2.9.3,2.2,0,3.9-.3,5.1-.9s2.1-1.5,2.6-2.6c.5-1.1.8-2.3.9-3.5s.1-3.3.2-6c-1.3,1.8-2.8,3.2-4.5,4.2s-3.7,1.4-6.1,1.4-5.3-.7-7.4-2.2-3.8-3.5-4.9-6.1c-1.1-2.6-1.7-5.6-1.7-9s.3-4.8,1-6.9c.7-2.1,1.7-3.8,3-5.2s2.8-2.5,4.4-3.2c1.7-.7,3.5-1.1,5.5-1.1s4.5.5,6.2,1.4,3.4,2.4,4.9,4.3v-1.2c0-1.5.4-2.6,1.1-3.4.7-.8,1.7-1.2,2.8-1.2,1.6,0,2.7.5,3.3,1.6.5,1.1.8,2.6.8,4.6h0ZM413.4,112.7c0,3.4.7,6,2.2,7.8s3.4,2.6,5.8,2.6,2.7-.4,4-1.1c1.2-.8,2.3-1.9,3.1-3.4.8-1.5,1.2-3.4,1.2-5.5,0-3.5-.8-6.1-2.3-8.1-1.5-1.9-3.5-2.9-6-2.9s-4.4.9-5.8,2.8c-1.5,1.8-2.2,4.5-2.2,7.9h0Z"/>
    <path class="st6" d="M468.6,115.1h-16.6c0,1.9.4,3.6,1.2,5.1.8,1.5,1.8,2.6,3,3.3,1.2.7,2.6,1.1,4.1,1.1s1.9-.1,2.8-.4,1.7-.6,2.4-1.1,1.5-1.1,2.2-1.6,1.5-1.4,2.6-2.4c.4-.4,1.1-.6,1.9-.6s1.6.2,2.1.7.8,1.2.8,2-.3,1.7-.9,2.7-1.5,2-2.7,3-2.7,1.7-4.6,2.3c-1.8.6-3.9.9-6.3.9-5.4,0-9.7-1.6-12.7-4.7-3-3.1-4.5-7.3-4.5-12.6s.4-4.8,1.1-7,1.8-4,3.3-5.5c1.4-1.5,3.2-2.7,5.3-3.5,2.1-.8,4.4-1.2,7-1.2s6.2.7,8.5,2.1,4.1,3.2,5.3,5.4c1.2,2.2,1.8,4.5,1.8,6.8s-.6,3.5-1.8,4.1c-1.2.6-2.9.9-5.2.9h0ZM452,110.3h15.4c-.2-2.9-1-5.1-2.3-6.5s-3.1-2.2-5.4-2.2-3.8.7-5.2,2.2c-1.4,1.5-2.2,3.6-2.5,6.5h0Z"/>
    <path class="st11" d="M490.4,100.5v1c1.5-2,3.1-3.4,4.9-4.3s3.8-1.4,6.1-1.4,4.2.5,6,1.5,3.1,2.3,3.9,4.1c.6,1,.9,2.2,1.1,3.4.2,1.2.2,2.7.2,4.6v15.8c0,1.7-.4,3-1.2,3.9s-1.8,1.3-3,1.3-2.3-.4-3.1-1.3-1.2-2.2-1.2-3.8v-14.1c0-2.8-.4-4.9-1.2-6.4-.8-1.5-2.3-2.2-4.6-2.2s-2.9.4-4.1,1.3c-1.2.9-2.2,2.1-2.7,3.7-.4,1.3-.6,3.6-.6,7.1v10.6c0,1.7-.4,3-1.2,3.9s-1.8,1.3-3.1,1.3-2.2-.4-3-1.3-1.2-2.2-1.2-3.8v-24.5c0-1.6.3-2.8,1.1-3.6s1.7-1.2,2.9-1.2,1.4.2,2,.5,1.1.9,1.4,1.6.5,1.6.5,2.6h0Z"/>
    <path class="st0" d="M551.6,119.8c0,1.1-.3,2.2-.9,3.4s-1.6,2.3-2.9,3.4-2.9,2-4.9,2.6-4.2,1-6.6,1c-5.2,0-9.3-1.5-12.3-4.6s-4.4-7.1-4.4-12.3.7-6.6,2-9.2,3.3-4.7,5.8-6.2c2.5-1.5,5.6-2.2,9.1-2.2s4.2.3,6,1c1.8.6,3.4,1.5,4.7,2.5s2.2,2.1,2.9,3.2,1,2.2,1,3.2-.4,1.9-1.1,2.6c-.8.7-1.7,1.1-2.7,1.1s-1.3-.2-1.8-.5-1-.9-1.6-1.8c-1-1.6-2.1-2.8-3.2-3.5-1.1-.8-2.6-1.2-4.3-1.2-2.5,0-4.5,1-6.1,2.9-1.5,2-2.3,4.6-2.3,8s.2,3.1.6,4.4,1,2.5,1.7,3.4c.7.9,1.7,1.7,2.7,2.1,1.1.5,2.2.7,3.5.7s3.2-.4,4.4-1.2c1.2-.8,2.3-2,3.2-3.6.5-1,1.1-1.7,1.7-2.2s1.3-.8,2.2-.8,1.9.4,2.6,1.2c.7.8,1,1.6,1,2.5h0Z"/>
    <path class="st8" d="M565.2,131.3l.8-1.9-10.4-26.3c-.6-1.5-1-2.6-1-3.3s.2-1.4.6-2c.4-.6.9-1.1,1.5-1.5s1.3-.6,2-.6c1.2,0,2.1.4,2.8,1.2.6.8,1.2,1.9,1.7,3.3l7.2,20.9,6.8-19.4c.5-1.6,1-2.8,1.5-3.7s.9-1.5,1.4-1.8,1.2-.5,2.1-.5,1.3.2,1.8.5c.6.3,1,.8,1.4,1.4s.5,1.2.5,1.8c0,.4-.2,1-.4,1.7-.2.7-.4,1.5-.7,2.2l-11.1,29c-1,2.5-1.9,4.5-2.8,6-.9,1.4-2.1,2.6-3.6,3.3s-3.5,1.2-6.1,1.2-4.3-.3-5.6-.8c-1.2-.5-1.9-1.5-1.9-3s.3-1.7.9-2.2c.6-.5,1.5-.8,2.6-.8s.9,0,1.3.2c.5.1,1,.2,1.4.2,1,0,1.7-.1,2.3-.4.6-.3,1.1-.8,1.5-1.5.4-.7,1-1.8,1.5-3.2h0Z"/>
  </g>
  <polygon class="st3" points="554.8 53.5 545.6 91.2 560 75.1 582.9 80.3 554.8 53.5"/>
</svg>