<?xml version="1.0" encoding="UTF-8"?>
<svg id="Calque_1" xmlns="http://www.w3.org/2000/svg" version="1.1" xmlns:xlink="http://www.w3.org/1999/xlink" viewBox="0 0 595.3 200.3">
  <!-- Generator: Adobe Illustrator 29.0.0, SVG Export Plug-In . SVG Version: 2.1.0 Build 186)  -->
  <defs>
    <style>
      .st0 {
        fill: url(#Orange_Jaune1);
      }

      .st1 {
        fill: url(#Orange_Jaune4);
      }

      .st2 {
        fill: url(#Dégradé_sans_nom_2);
      }

      .st3 {
        fill: url(#Dégradé_sans_nom_235);
      }

      .st4 {
        fill: url(#Orange_Jaune);
      }

      .st5 {
        fill: url(#Dégradé_sans_nom_231);
      }

      .st6 {
        fill: url(#Orange_Jaune9);
      }

      .st7 {
        fill: url(#Orange_Jaune5);
      }

      .st8 {
        fill: url(#Orange_Jaune2);
      }

      .st9 {
        fill: url(#Orange_Jaune3);
      }

      .st10 {
        fill: url(#Orange_Jaune8);
      }

      .st11 {
        fill: url(#Orange_Jaune6);
      }

      .st12 {
        fill: url(#Orange_Jaune7);
      }
    </style>
    <linearGradient id="Dégradé_sans_nom_231" data-name="Dégradé sans nom 231" x1="9.6" y1="95.3" x2="119.8" y2="95.3" gradientTransform="translate(0 199.9) scale(1 -1)" gradientUnits="userSpaceOnUse">
      <stop offset="0" stop-color="#f28c1b"/>
      <stop offset="1" stop-color="#ea9d00"/>
    </linearGradient>
    <linearGradient id="Dégradé_sans_nom_2" data-name="Dégradé sans nom 2" x1="76.6" y1="97" x2="161.9" y2="97" gradientTransform="translate(0 199.9) scale(1 -1)" gradientUnits="userSpaceOnUse">
      <stop offset="0" stop-color="#e96e08"/>
      <stop offset="1" stop-color="#e9ca00"/>
    </linearGradient>
    <linearGradient id="Dégradé_sans_nom_235" data-name="Dégradé sans nom 235" x1="114.8" y1="96.8" x2="197.1" y2="96.8" gradientTransform="translate(0 199.9) scale(1 -1)" gradientUnits="userSpaceOnUse">
      <stop offset="0" stop-color="#eb9b04"/>
      <stop offset="1" stop-color="#f7bc00"/>
    </linearGradient>
    <linearGradient id="Orange_Jaune" data-name="Orange, Jaune" x1="463" y1="146.7" x2="501.8" y2="146.7" gradientTransform="translate(145.2 341) rotate(-16.4) scale(1 -1)" gradientUnits="userSpaceOnUse">
      <stop offset="0" stop-color="#ffee25"/>
      <stop offset="0" stop-color="#fee820"/>
      <stop offset=".1" stop-color="#fdd60e"/>
      <stop offset=".2" stop-color="#fdca03"/>
      <stop offset=".3" stop-color="#fdc700"/>
      <stop offset=".7" stop-color="#f08f34"/>
      <stop offset=".9" stop-color="#e86031"/>
      <stop offset="1" stop-color="#e2312d"/>
    </linearGradient>
    <linearGradient id="Orange_Jaune1" data-name="Orange, Jaune" x1="202.3" y1="97.5" x2="245.6" y2="97.5" gradientTransform="translate(0 199.9) scale(1 -1)" xlink:href="#Orange_Jaune"/>
    <linearGradient id="Orange_Jaune2" data-name="Orange, Jaune" x1="252.6" y1="97.5" x2="292.5" y2="97.5" gradientTransform="translate(0 199.9) scale(1 -1)" xlink:href="#Orange_Jaune"/>
    <linearGradient id="Orange_Jaune3" data-name="Orange, Jaune" x1="300.8" y1="97.1" x2="336.4" y2="97.1" gradientTransform="translate(0 199.9) scale(1 -1)" xlink:href="#Orange_Jaune"/>
    <linearGradient id="Orange_Jaune4" data-name="Orange, Jaune" x1="357.2" y1="97.5" x2="400.5" y2="97.5" gradientTransform="translate(0 199.9) scale(1 -1)" xlink:href="#Orange_Jaune"/>
    <linearGradient id="Orange_Jaune5" data-name="Orange, Jaune" x1="404.9" y1="84.6" x2="438.8" y2="84.6" gradientTransform="translate(0 199.9) scale(1 -1)" xlink:href="#Orange_Jaune"/>
    <linearGradient id="Orange_Jaune6" data-name="Orange, Jaune" x1="444.3" y1="91.1" x2="477.4" y2="91.1" gradientTransform="translate(0 199.9) scale(1 -1)" xlink:href="#Orange_Jaune"/>
    <linearGradient id="Orange_Jaune7" data-name="Orange, Jaune" x1="484.4" y1="91" x2="515.4" y2="91" gradientTransform="translate(0 199.9) scale(1 -1)" xlink:href="#Orange_Jaune"/>
    <linearGradient id="Orange_Jaune8" data-name="Orange, Jaune" x1="522.4" y1="91.1" x2="555.2" y2="91.1" gradientTransform="translate(0 199.9) scale(1 -1)" xlink:href="#Orange_Jaune"/>
    <linearGradient id="Orange_Jaune9" data-name="Orange, Jaune" x1="557.2" y1="84.6" x2="590.1" y2="84.6" gradientTransform="translate(0 199.9) scale(1 -1)" xlink:href="#Orange_Jaune"/>
  </defs>
  <path class="st5" d="M119.8,138.7H19.6c-8.4,0-13.1-9.8-7.7-16.3l7.3-8.7h0c0-.1,33.2-40.3,33.2-40.3,3.2-3.9,9.1-3.9,12.3,0l6.5,7.8c2.2,2.7,2.3,6.6,0,9.2l-15.7,19c-1.3,1.6-.2,4.1,1.9,4.1h29.7c7,0,13.7,3.1,18.3,8.5l14.1,16.8h0Z"/>
  <path class="st2" d="M161.9,138.7h-25.1c-5.5,0-10.8-2.4-14.4-6.6l-44-52.1c-4.3-5.1-.7-12.8,6-12.8h10.5c4.2,0,8.1,1.8,10.8,5l56.1,66.4Z"/>
  <path class="st3" d="M197.1,103.7c0,3.8-.6,7.4-1.7,10.8-3.8,12.1-13.8,21.4-26.2,24.2l-13.5-16c-3-3.6-.4-9,4.3-8.9h0c.8.2,5.2.3,6,.3s1.3,0,2-.2c4.7-.9,8.3-5,8.3-10s-3-8.4-7.1-9.7c-1-.3-2-.5-3.1-.5s-10.2-.3-11.1,0l-17.5-.2c-4.1,0-7.9-1.8-10.5-4.9l-10.9-12.9c-2.8-3.3-.4-8.3,3.9-8.2l36,.7h0l10,.2c1.9,0,3.7.3,5.5.8,12.1,3.5,21.5,13.3,24.6,25.6.7,2.8,1.1,5.8,1.1,8.9h0Z"/>
  <polygon class="st4" points="562 48.3 552.9 86 567.3 69.9 590.1 75.1 562 48.3"/>
  <g>
    <path class="st0" d="M235.5,120.4l-2.2-5.9h-19l-2.2,6c-.9,2.3-1.6,3.9-2.2,4.7-.6.8-1.6,1.2-3,1.2s-2.2-.4-3.1-1.3-1.4-1.9-1.4-3,.1-1.3.3-2c.2-.7.6-1.6,1-2.8l11.9-30.3c.3-.9.7-1.9,1.2-3.1.5-1.2,1-2.2,1.5-3,.5-.8,1.2-1.5,2.1-2,.9-.5,2-.7,3.3-.7s2.4.2,3.3.7c.9.5,1.6,1.1,2.1,1.9.5.8,1,1.6,1.4,2.5s.8,2.1,1.4,3.6l12.2,30.1c1,2.3,1.4,4,1.4,5s-.5,2.1-1.4,3-2,1.3-3.3,1.3-1.4-.1-1.9-.4-1-.6-1.3-1.1c-.4-.5-.7-1.2-1.2-2.1s-.8-1.8-1.1-2.5h0ZM216.8,107.5h13.9l-7-19.3-6.9,19.3h0Z"/>
    <path class="st8" d="M258.4,79.1h12.3c3.2,0,6,.3,8.2.9,2.3.6,4.4,1.7,6.2,3.3,4.9,4.2,7.3,10.5,7.3,19s-.2,5.4-.7,7.7-1.2,4.4-2.3,6.3-2.3,3.5-3.9,5c-1.2,1.1-2.6,2-4.1,2.7-1.5.7-3.1,1.2-4.8,1.4-1.7.3-3.6.4-5.8.4h-12.3c-1.7,0-3-.3-3.9-.8-.9-.5-1.4-1.2-1.7-2.2s-.4-2.2-.4-3.7v-34.2c0-2,.5-3.5,1.4-4.4.9-.9,2.4-1.4,4.4-1.4h0ZM262.1,86.5v31.7h7.2c1.6,0,2.8,0,3.7-.1s1.8-.3,2.8-.6,1.8-.8,2.5-1.4c3.2-2.7,4.7-7.3,4.7-13.8s-.7-8-2.1-10.3-3.1-3.8-5.1-4.4-4.5-.9-7.4-.9h-6.2Z"/>
    <path class="st9" d="M318.9,107.5h-8.7v13.2c0,1.9-.4,3.3-1.3,4.3s-2,1.5-3.4,1.5-2.6-.5-3.4-1.4-1.3-2.4-1.3-4.3v-36c0-2.1.5-3.6,1.4-4.5,1-.9,2.5-1.3,4.6-1.3h12.1c3.6,0,6.3.3,8.3.8,1.9.5,3.6,1.4,5,2.6,1.4,1.2,2.4,2.7,3.2,4.5s1.1,3.8,1.1,6c0,4.8-1.5,8.4-4.4,10.8s-7.3,3.7-13.1,3.7h0ZM316.6,86.2h-6.4v14.3h6.4c2.2,0,4.1-.2,5.6-.7,1.5-.5,2.6-1.2,3.4-2.3.8-1.1,1.2-2.4,1.2-4.2s-.6-3.7-1.8-5c-1.4-1.4-4.2-2.1-8.4-2.1h0Z"/>
    <path class="st1" d="M390.4,120.4l-2.2-5.9h-19l-2.2,6c-.9,2.3-1.6,3.9-2.2,4.7-.6.8-1.6,1.2-3,1.2s-2.2-.4-3.1-1.3c-.9-.9-1.4-1.9-1.4-3s.1-1.3.3-2,.6-1.6,1-2.8l11.9-30.3c.3-.9.7-1.9,1.2-3.1s1-2.2,1.5-3c.5-.8,1.2-1.5,2.1-2,.9-.5,2-.7,3.3-.7s2.4.2,3.3.7c.9.5,1.6,1.1,2.1,1.9.5.8,1,1.6,1.4,2.5.4.9.8,2.1,1.4,3.6l12.2,30.1c1,2.3,1.4,4,1.4,5s-.5,2.1-1.4,3-2,1.3-3.3,1.3-1.4-.1-1.9-.4-1-.6-1.3-1.1-.7-1.2-1.2-2.1-.8-1.8-1.1-2.5h0ZM371.7,107.5h13.9l-7-19.3-6.9,19.3Z"/>
    <path class="st7" d="M438.8,97.6v25.2c0,2.9-.3,5.4-.9,7.4-.6,2.1-1.6,3.8-3,5.2s-3.1,2.4-5.3,3-4.9,1-8.2,1-5.7-.4-8-1.3-4.2-1.9-5.4-3.2-1.9-2.7-1.9-4.1.4-1.9,1.1-2.6,1.6-1,2.6-1,2.4.6,3.3,1.7c.5.6.9,1.1,1.4,1.7.5.6,1,1.1,1.7,1.5.6.4,1.3.7,2.2.9.8.2,1.8.3,2.9.3,2.2,0,4-.3,5.2-.9s2.1-1.5,2.6-2.6c.5-1.1.8-2.3.9-3.6s.1-3.3.2-6.2c-1.3,1.9-2.9,3.3-4.6,4.3s-3.8,1.5-6.3,1.5-5.5-.7-7.6-2.2-3.9-3.6-5-6.2c-1.2-2.7-1.7-5.8-1.7-9.3s.4-5,1.1-7.1c.7-2.1,1.7-3.9,3-5.3s2.8-2.5,4.6-3.3c1.7-.7,3.6-1.1,5.7-1.1s4.6.5,6.4,1.4,3.5,2.4,5,4.4v-1.2c0-1.5.4-2.7,1.1-3.5.7-.8,1.7-1.2,2.9-1.2,1.7,0,2.8.5,3.3,1.6.6,1.1.8,2.7.8,4.7h0ZM413.6,108.6c0,3.5.8,6.2,2.3,8s3.5,2.7,6,2.7,2.8-.4,4.1-1.2c1.3-.8,2.3-1.9,3.1-3.5.8-1.6,1.2-3.4,1.2-5.7,0-3.5-.8-6.3-2.3-8.3-1.6-2-3.6-3-6.2-3s-4.5.9-6,2.8c-1.5,1.9-2.2,4.6-2.2,8h0Z"/>
    <path class="st11" d="M470.2,111h-17c0,2,.4,3.7,1.2,5.2.8,1.5,1.8,2.6,3.1,3.4,1.3.8,2.7,1.1,4.3,1.1s2-.1,2.8-.4,1.7-.6,2.5-1.1,1.5-1.1,2.2-1.7,1.6-1.4,2.6-2.4c.4-.4,1.1-.6,1.9-.6s1.6.2,2.2.7.8,1.2.8,2.1-.3,1.7-.9,2.7-1.5,2.1-2.8,3-2.8,1.8-4.7,2.4c-1.9.6-4,1-6.5,1-5.6,0-9.9-1.6-13-4.8-3.1-3.2-4.6-7.5-4.6-13s.4-5,1.1-7.1,1.9-4.1,3.3-5.7c1.5-1.6,3.3-2.8,5.4-3.6,2.1-.8,4.5-1.3,7.1-1.3s6.3.7,8.7,2.1,4.3,3.3,5.5,5.6c1.2,2.3,1.8,4.6,1.8,6.9s-.6,3.6-1.9,4.3c-1.2.6-3,1-5.3,1h0ZM453.2,106.1h15.8c-.2-3-1-5.2-2.4-6.7s-3.2-2.2-5.5-2.2-3.9.7-5.3,2.2c-1.4,1.5-2.2,3.7-2.5,6.6h0Z"/>
    <path class="st12" d="M492.6,96v1c1.5-2,3.2-3.5,5-4.4s3.9-1.4,6.3-1.4,4.3.5,6.1,1.5,3.1,2.4,4,4.2c.6,1.1.9,2.2,1.1,3.4.2,1.2.3,2.8.3,4.7v16.2c0,1.7-.4,3.1-1.2,4s-1.8,1.3-3.1,1.3-2.3-.5-3.1-1.4-1.2-2.2-1.2-3.9v-14.5c0-2.9-.4-5.1-1.2-6.6-.8-1.5-2.4-2.3-4.8-2.3s-3,.5-4.2,1.4c-1.3.9-2.2,2.2-2.8,3.8-.4,1.3-.6,3.7-.6,7.3v10.9c0,1.8-.4,3.1-1.2,4s-1.9,1.3-3.2,1.3-2.3-.5-3.1-1.4-1.2-2.2-1.2-3.9v-25.1c0-1.7.4-2.9,1.1-3.7s1.7-1.2,3-1.2,1.5.2,2.1.5,1.1.9,1.5,1.6.6,1.6.6,2.6h0Z"/>
    <path class="st10" d="M555.2,115.8c0,1.1-.3,2.2-1,3.5s-1.6,2.4-3,3.5-3,2-5,2.7-4.3,1-6.8,1c-5.4,0-9.6-1.6-12.6-4.7s-4.5-7.3-4.5-12.6.7-6.7,2.1-9.4,3.4-4.9,6-6.4c2.6-1.5,5.7-2.2,9.4-2.2s4.3.3,6.2,1c1.9.7,3.5,1.5,4.8,2.5s2.3,2.1,3,3.3,1,2.3,1,3.3-.4,1.9-1.2,2.6c-.8.7-1.7,1.1-2.8,1.1s-1.3-.2-1.8-.6-1-1-1.6-1.8c-1.1-1.6-2.2-2.8-3.3-3.6-1.2-.8-2.6-1.2-4.4-1.2-2.6,0-4.6,1-6.2,3-1.6,2-2.4,4.8-2.4,8.2s.2,3.1.6,4.5,1,2.5,1.7,3.5c.8,1,1.7,1.7,2.8,2.2,1.1.5,2.3.7,3.6.7s3.2-.4,4.5-1.2c1.2-.8,2.3-2,3.3-3.7.5-1,1.1-1.7,1.7-2.3s1.4-.8,2.3-.8,1.9.4,2.6,1.2c.7.8,1,1.7,1,2.6h0Z"/>
    <path class="st6" d="M569.1,127.6l.8-1.9-10.7-26.9c-.7-1.5-1-2.7-1-3.4s.2-1.4.6-2.1c.4-.6.9-1.1,1.6-1.5s1.4-.6,2.1-.6c1.2,0,2.2.4,2.8,1.2.6.8,1.2,1.9,1.7,3.4l7.4,21.4,7-19.9c.6-1.6,1-2.9,1.5-3.8s.9-1.5,1.4-1.8,1.2-.5,2.1-.5,1.3.2,1.9.5c.6.3,1.1.8,1.4,1.4s.5,1.2.5,1.9c0,.4-.2,1-.4,1.7-.2.7-.4,1.5-.7,2.3l-11.3,29.7c-1,2.6-1.9,4.7-2.9,6.1-.9,1.5-2.2,2.6-3.7,3.4s-3.6,1.2-6.2,1.2-4.5-.3-5.7-.8c-1.3-.6-1.9-1.6-1.9-3s.3-1.8.9-2.3c.6-.5,1.5-.8,2.7-.8s.9,0,1.4.2c.6.1,1,.2,1.4.2,1,0,1.8-.1,2.4-.4.6-.3,1.1-.8,1.5-1.5.5-.7,1-1.8,1.6-3.2h0Z"/>
  </g>
</svg>