<?xml version="1.0" encoding="UTF-8"?>
<svg id="Calque_1" xmlns="http://www.w3.org/2000/svg" version="1.1" xmlns:xlink="http://www.w3.org/1999/xlink" viewBox="0 0 600.9 200.3">
  <!-- Generator: Adobe Illustrator 29.0.0, SVG Export Plug-In . SVG Version: 2.1.0 Build 186)  -->
  <defs>
    <style>
      .st0 {
        fill: url(#Dégradé_sans_nom_2);
      }

      .st1 {
        fill: url(#Dégradé_sans_nom_235);
      }

      .st2 {
        fill: url(#Dégradé_sans_nom_231);
      }
    </style>
    <linearGradient id="Dégradé_sans_nom_231" data-name="Dégradé sans nom 231" x1="41.3" y1="95.7" x2="327.7" y2="95.7" gradientTransform="translate(0 200.1) scale(1 -1)" gradientUnits="userSpaceOnUse">
      <stop offset="0" stop-color="#f28d1d"/>
      <stop offset="1" stop-color="#eb9e05"/>
    </linearGradient>
    <linearGradient id="Dégradé_sans_nom_2" data-name="Dégradé sans nom 2" x1="215.6" y1="100" x2="437.3" y2="100" gradientTransform="translate(0 200.1) scale(1 -1)" gradientUnits="userSpaceOnUse">
      <stop offset="0" stop-color="#e96e08"/>
      <stop offset="1" stop-color="#e9ca00"/>
    </linearGradient>
    <linearGradient id="Dégradé_sans_nom_235" data-name="Dégradé sans nom 235" x1="314.8" y1="99.7" x2="528.7" y2="99.7" gradientTransform="translate(0 200.1) scale(1 -1)" gradientUnits="userSpaceOnUse">
      <stop offset="0" stop-color="#ec9c08"/>
      <stop offset="1" stop-color="#f7bd04"/>
    </linearGradient>
  </defs>
  <path class="st2" d="M327.6,193H67.3c-21.9,0-34-25.4-20-42.3l18.9-22.7.3-.3L152.8,23.3c8.3-10,23.7-10.1,32.1-.1l17,20.2c5.8,6.9,5.9,17,.1,24l-40.7,49.3c-3.5,4.2-.5,10.6,5,10.6h77.3c18.3,0,35.7,8.1,47.4,22l36.7,43.7h0Z"/>
  <path class="st0" d="M437.3,193h-65.3c-14.4,0-28-6.3-37.3-17.3L220.3,40.4c-11.1-13.1-1.7-33.2,15.5-33.2h27.3c10.9,0,21.2,4.8,28.2,13l145.9,172.7Z"/>
  <path class="st1" d="M528.7,102c0,9.8-1.5,19.2-4.3,28.1-9.8,31.4-35.8,55.6-68,63l-35.2-41.6c-7.8-9.2-1-23.3,11.1-23h0c2,.5,13.4.7,15.5.7s3.4-.2,5.1-.5c12.3-2.3,21.5-13.1,21.5-26s-7.8-21.8-18.5-25.2c-2.6-.8-5.3-1.3-8.1-1.3s-26.5-.8-28.8-.2l-45.6-.5c-10.5-.1-20.5-4.8-27.3-12.8l-28.4-33.6c-7.2-8.5-1-21.5,10.3-21.3l93.5,1.9h0l25.9.5c4.9,0,9.7.8,14.3,2.1,31.4,9.2,55.8,34.6,64,66.5,1.9,7.4,2.9,15.2,2.9,23.1h0Z"/>
</svg>